<svg xmlns="http://www.w3.org/2000/svg" viewBox="0 0 512 512">
  <defs>
    <linearGradient id="bg" x1="0" x2="1" y1="0" y2="1">
      <stop offset="0%" stop-color="#ec4899"/>
      <stop offset="100%" stop-color="#f59e0b"/>
    </linearGradient>
  </defs>
  <rect width="512" height="512" rx="96" fill="url(#bg)"/>
  <g fill="#fff" transform="translate(96 96) scale(0.625)">
    <path d="M256 32C141 32 48 125 48 240c0 53 20 102 53 138 12 13 19 30 19 48v22c0 18 15 32 32 32h208c17 0 32-14 32-32v-22c0-18 7-35 19-48 33-36 53-85 53-138 0-115-93-208-208-208z"/>
    <circle cx="200" cy="220" r="22" fill="#ec4899"/>
    <circle cx="312" cy="220" r="22" fill="#ec4899"/>
    <path d="M200 320c30 30 82 30 112 0" stroke="#ec4899" stroke-width="16" fill="none" stroke-linecap="round"/>
  </g>
  <text x="256" y="470" text-anchor="middle" font-family="Inter, sans-serif" font-size="64" font-weight="800" fill="#fff">SweetPOS</text>
</svg>
