<svg xmlns="http://www.w3.org/2000/svg" viewBox="0 0 64 64">
  <defs>
    <linearGradient id="g" x1="0" x2="1" y1="0" y2="1">
      <stop offset="0%" stop-color="#ec4899"/>
      <stop offset="100%" stop-color="#f59e0b"/>
    </linearGradient>
  </defs>
  <rect width="64" height="64" rx="14" fill="url(#g)"/>
  <path d="M20 22c0-4 3-7 7-7h10c4 0 7 3 7 7 0 3-2 5-4 6 3 1 5 4 5 7 0 5-4 9-9 9H24c-3 0-5-2-5-5 0-3 2-5 5-5h-1c-2 0-3-1-3-3 0-2 1-3 3-3h-1c-1 0-2-1-2-2 0-1 1-2 2-2h-2v-2z" fill="#fff"/>
  <circle cx="32" cy="46" r="3" fill="#ec4899"/>
</svg>
